<svg width="1000" height="1000" xmlns="http://www.w3.org/2000/svg" version="1.0" preserveAspectRatio="xMidYMid meet">
 <g class="layer">
  <title>Layer 1</title>
  <g transform="matrix(0.0952457 0 0 -0.102151 -14.621 36.873)" id="svg_1" fill="#000000">
   <path id="svg_2" d="m2375.05186,229.03747c-73,-147 -88,-210 -72,-299c15,-82 39,-144 82,-210c75,-117 118,-210 118,-259c0,-71 -55,-187 -174,-369c-87,-133 -191,-302 -228,-374l-22,-42l-7,45c-9,58 -68,197 -104,244c-35,46 -110,89 -222,127c-70,24 -117,32 -228,40c-140,9 -179,15 -310,43c-129,29 -465,15 -465,-18c0,-18 135,-114 193,-137c28,-11 71,-31 94,-44c23,-13 86,-37 140,-54c54,-18 119,-38 144,-47c51,-16 294,-33 494,-34c140,0 179,-12 206,-61c21,-40 6,-183 -30,-284c-53,-146 -111,-362 -141,-524c-25,-137 -60,-416 -60,-485c0,-67 -11,-50 -44,69c-40,141 -84,243 -126,290c-20,22 -56,65 -79,95c-112,148 -442,410 -642,510c-46,24 -115,62 -152,86c-68,44 -97,54 -97,32c0,-6 49,-61 108,-122c60,-61 134,-138 165,-171c63,-67 187,-174 352,-301c186,-144 286,-226 351,-289c71,-70 84,-102 108,-270c8,-55 21,-129 30,-165c10,-44 17,-148 22,-320l7,-255l-54,50c-79,73 -140,115 -268,184c-63,34 -132,73 -155,86c-23,13 -77,39 -121,58c-44,19 -147,66 -230,104c-283,133 -481,201 -506,176c-16,-16 35,-119 93,-190c280,-337 384,-437 519,-496l54,-23l-82,-1c-45,-1 -108,-9 -140,-18c-204,-57 -715,-269 -738,-304c-11,-18 -6,-20 91,-36c49,-8 123,-24 164,-35c58,-16 119,-22 265,-27l190,-6l130,38c72,21 198,65 280,98c83,33 173,66 202,73c70,19 153,11 238,-24l70,-29l6,-109c4,-60 14,-206 23,-324c20,-277 25,-352 30,-540l5,-155l-29,53c-33,61 -185,274 -213,299c-13,13 -22,15 -35,7c-13,-9 -16,-34 -19,-160c-1,-82 -10,-242 -19,-356c-16,-195 -16,-214 0,-319c10,-61 34,-171 55,-245c42,-148 44,-143 -34,-72c-48,43 -115,67 -236,82c-189,25 -261,29 -321,17c-70,-13 -153,-51 -153,-70c0,-10 61,-38 179,-82c99,-37 191,-73 205,-81c14,-7 59,-45 101,-83c94,-88 158,-129 240,-154c77,-24 137,-60 219,-133c34,-29 74,-64 90,-78l30,-25l10,-190c6,-105 11,-227 11,-271c0,-108 8,-144 31,-144c10,0 20,3 22,8c3,4 1,77 -4,162c-16,272 -13,334 16,435c37,128 45,174 55,315c9,136 -13,424 -46,597c-22,120 -15,211 29,343c19,58 47,146 62,195c30,101 102,258 136,293c27,30 110,82 169,107c114,48 556,279 652,341c59,38 147,92 194,119c48,28 112,75 143,105c90,88 273,299 267,308c-3,5 -37,-2 -75,-14c-39,-13 -88,-26 -108,-30c-47,-9 -771,-372 -873,-438c-82,-54 -203,-165 -256,-237c-18,-25 -54,-84 -79,-130c-24,-46 -45,-81 -45,-78c0,14 61,188 87,249c47,108 121,242 171,307c48,63 86,113 232,306c52,70 165,193 300,328c197,198 221,219 291,252c95,44 124,52 274,72c429,58 558,87 711,159c158,75 248,147 313,250c28,44 41,96 25,96c-3,0 -72,-22 -152,-49c-256,-86 -422,-120 -592,-121c-106,0 -196,-17 -260,-47c-67,-32 -178,-141 -209,-206c-13,-26 -27,-47 -33,-47c-13,0 -66,-40 -175,-132c-51,-43 -94,-78 -97,-78c-3,0 20,41 50,92c30,51 54,96 54,100c0,5 15,41 34,81c153,326 150,317 118,317c-41,0 -369,-246 -489,-367c-123,-124 -224,-308 -303,-548c-35,-110 -151,-407 -156,-402c-9,8 21,143 52,236c19,57 38,129 43,160c10,65 -2,767 -13,794c-9,18 -16,20 -40,11c-14,-5 -13,-9 4,-31c19,-24 20,-41 20,-282c0,-141 5,-283 10,-316c13,-79 -10,-223 -51,-319c-16,-39 -41,-127 -55,-196c-13,-68 -29,-129 -34,-134c-6,-6 -10,-20 -10,-33c0,-48 -16,-19 -39,69c-41,159 -56,525 -31,718c14,104 54,237 107,353c55,120 54,165 -1,57c-89,-174 -131,-333 -144,-547c-5,-83 -5,-173 -1,-200c4,-26 8,-78 8,-115c1,-91 18,-204 47,-315c13,-51 24,-103 24,-116c0,-24 -48,-176 -61,-193c-8,-10 -85,-225 -178,-499c-21,-60 -55,-172 -77,-249l-39,-138l-22,51c-21,47 -24,77 -33,319c-6,147 -15,326 -20,397c-17,216 -14,264 20,357c25,67 30,97 30,169c0,78 -5,99 -47,215c-44,122 -46,134 -47,234c0,95 3,113 33,190c73,189 106,335 116,515c3,49 8,92 12,96c5,4 49,15 98,24c127,23 262,76 386,151c89,53 126,68 220,93c242,62 574,224 670,328c31,32 64,83 55,83c-3,0 -34,-26 -69,-58c-127,-115 -417,-252 -672,-317c-55,-15 -116,-36 -137,-48c-20,-12 -68,-42 -107,-65c-89,-55 -231,-108 -340,-127c-46,-8 -86,-13 -88,-11c-11,10 112,110 230,188c143,93 209,142 112,82c-33,-21 -97,-60 -143,-87c-45,-27 -115,-81 -154,-118c-40,-37 -74,-67 -75,-65c-7,7 61,127 102,178c47,60 164,159 240,204c52,30 180,85 280,120c101,36 233,68 529,129c143,30 271,57 284,61c16,5 22,2 22,-10c0,-9 4,-16 9,-16c11,0 23,29 17,39c-3,4 -78,-8 -168,-26c-90,-19 -221,-45 -293,-59c-219,-43 -461,-116 -610,-183c-208,-94 -409,-300 -444,-452c-6,-24 -11,-94 -11,-155c0,-95 -6,-133 -39,-265c-65,-257 -66,-256 -69,61c-3,293 12,527 48,729c20,107 24,116 126,276c17,28 64,86 104,130c39,44 79,92 88,108c9,15 23,27 31,27c7,0 36,13 62,30c27,16 65,36 85,45c67,28 255,168 321,239c110,118 356,516 338,546c-4,6 -23,-1 -48,-18c-23,-16 -100,-65 -172,-110c-355,-219 -479,-342 -560,-557c-54,-142 -65,-162 -156,-272c-45,-54 -104,-136 -132,-182c-28,-45 -53,-79 -54,-74c-2,5 10,54 27,109c17,54 39,128 49,164c27,94 52,154 141,330c157,310 327,526 498,633c46,29 113,71 150,94c107,68 140,74 532,102c193,14 385,85 522,193c69,54 92,97 46,84c-89,-25 -295,-58 -408,-67c-273,-20 -325,-29 -401,-65c-87,-42 -141,-78 -244,-164c-44,-37 -109,-86 -145,-110c-36,-24 -98,-68 -137,-97c-40,-29 -73,-51 -73,-47c0,3 13,24 29,47c48,70 60,102 76,192c31,177 9,396 -60,595c-14,41 -37,117 -50,169c-13,51 -26,95 -28,97c-2,3 -32,-51 -65,-118zm83,-20c9,-40 25,-96 35,-125c11,-29 31,-117 46,-195c22,-122 26,-160 21,-256c-4,-62 -11,-120 -16,-130c-10,-16 -10,-16 -11,0c0,34 -42,128 -96,219c-91,150 -116,249 -89,354c15,57 79,205 89,205c2,0 12,-33 21,-72zm1360,-466c-42,-36 -122,-84 -185,-110c-148,-60 -211,-73 -415,-82c-104,-5 -224,-16 -265,-24c-41,-9 -77,-16 -79,-16c-9,0 77,60 135,95c98,59 166,75 399,91c116,8 251,23 300,33c104,22 123,24 110,13zm-864,-546c-18,-19 -28,-35 -22,-37c22,-8 -158,-276 -253,-377c-58,-62 -196,-166 -281,-212c-33,-18 -72,-45 -88,-59l-27,-25l-22,22l-22,22l26,27c15,16 36,53 47,83c63,168 202,301 540,517c62,40 118,73 124,73c6,0 -4,-15 -22,-34zm-1726,-50c61,-18 165,-33 305,-45c198,-17 371,-93 426,-186c14,-25 24,-48 21,-52c-3,-3 -20,5 -38,18c-18,13 -30,18 -26,12c18,-29 -502,-19 -608,12c-163,48 -247,77 -277,94c-18,11 -59,29 -90,41c-57,21 -165,94 -161,108c8,25 360,23 448,-2zm-353,-727c111,-56 315,-198 407,-283c42,-39 95,-88 118,-108c72,-64 243,-279 243,-305c0,-9 -19,1 -47,26c-114,98 -216,182 -318,261c-60,47 -125,99 -144,116c-20,17 -61,51 -91,75c-58,47 -268,259 -256,259c3,0 43,-18 88,-41zm3738,-818c0,-23 -97,-136 -150,-176c-177,-130 -365,-189 -760,-240c-146,-19 -294,-35 -297,-31c-1,1 15,29 36,61c48,76 131,152 205,188c52,26 76,30 241,42c100,8 228,23 284,35c114,23 315,82 376,110c45,21 65,24 65,11zm-1280,-110c0,-4 -17,-30 -37,-57c-20,-27 -29,-43 -20,-35c9,7 17,12 17,9c0,-2 -33,-76 -73,-164c-101,-218 -170,-316 -445,-628c-74,-83 -166,-196 -205,-251c-39,-55 -79,-108 -88,-118c-8,-9 -33,-47 -54,-82c-21,-36 -40,-63 -42,-61c-3,2 32,88 76,190c45,101 99,238 122,303c54,155 164,382 226,463c70,92 164,176 351,318c89,67 164,122 167,122c3,0 5,-4 5,-9zm-2736,-303c11,-6 -3,10 -31,36c-29,27 -53,52 -53,58c0,27 179,-39 422,-156c76,-36 179,-84 229,-105c50,-22 130,-62 177,-89c48,-27 117,-66 154,-86c88,-48 210,-145 249,-199c38,-51 121,-226 113,-238c-3,-5 -1,-9 5,-9c13,0 35,-39 27,-47c-3,-4 -34,8 -68,24c-80,39 -163,73 -179,73c-6,0 -39,14 -73,31c-33,17 -99,45 -144,61c-46,16 -124,47 -173,69c-50,21 -94,39 -100,39c-28,0 -169,76 -226,122c-112,90 -443,482 -443,523c0,4 21,-16 46,-44c26,-28 56,-57 68,-63zm2756,-83c0,-2 -10,-9 -22,-15c-22,-11 -22,-10 -4,4c21,17 26,19 26,11zm-2228,-505c64,-6 109,-18 165,-43c43,-19 103,-43 133,-52c30,-10 68,-24 84,-32l28,-15l-83,-28c-46,-16 -129,-47 -184,-70c-55,-23 -163,-62 -240,-88l-140,-47l-205,0c-178,1 -215,4 -280,22c-41,12 -108,27 -148,34c-57,10 -70,15 -60,24c42,39 621,265 743,290c76,16 82,17 187,5zm2478,-95c-7,-8 -18,-15 -24,-15c-12,0 -129,-76 -182,-118c-38,-31 -13,-18 58,30c31,21 69,43 84,48c24,10 24,7 -14,-37c-84,-101 -206,-208 -290,-253c-45,-25 -131,-76 -189,-113c-99,-64 -368,-204 -625,-326c-104,-49 -133,-59 -126,-43c54,122 82,164 167,244c49,47 125,107 168,133c154,94 760,395 865,430c118,39 125,40 108,20zm-1726,-201c11,-10 16,-34 16,-69c0,-65 -19,-160 -30,-148c-9,10 -21,219 -13,227c9,8 10,8 27,-10zm-231,-834c9,-11 17,-22 17,-25c0,-3 25,-40 56,-82c70,-98 87,-130 130,-256c20,-55 49,-127 65,-159c16,-31 29,-69 29,-83c0,-14 11,-87 25,-161c14,-74 25,-160 25,-190c0,-31 5,-98 11,-150c8,-70 8,-136 0,-257c-16,-222 -21,-234 -43,-112c-9,55 -24,120 -33,145c-18,55 -15,28 15,-128c21,-110 24,-193 6,-147c-5,11 -19,43 -31,70c-79,169 -111,228 -158,295c-56,79 -87,161 -143,375c-32,125 -42,316 -25,495c7,69 14,181 16,250c1,69 3,128 4,133c2,13 16,7 34,-13zm-403,-981c226,-27 253,-37 345,-126c119,-115 276,-347 262,-387c-2,-6 7,-24 19,-39c13,-16 24,-33 24,-38c0,-14 -57,20 -94,56c-70,69 -144,112 -240,139c-67,20 -145,73 -226,155c-58,59 -69,65 -294,158l-139,57l34,14c75,31 125,33 309,11z"/>
   <path id="svg_3" d="m2833.05186,-930.96253c-77,-72 -78,-74 -15,-20c66,56 113,102 104,102c-2,-1 -42,-37 -89,-82z"/>
   <path id="svg_4" d="m2672.05186,-1065.96253c-13,-16 -12,-17 4,-4c9,7 17,15 17,17c0,8 -8,3 -21,-13z"/>
   <path id="svg_5" d="m2572.05186,-1165.96253l-24,-28l28,24c15,14 27,26 27,28c0,8 -8,1 -31,-24z"/>
   <path id="svg_6" d="m2482.05186,-1255.96253c-13,-16 -12,-17 4,-4c16,13 21,21 13,21c-2,0 -10,-8 -17,-17z"/>
   <path id="svg_7" d="m2382.05186,-1355.96253c-74,-81 -104,-116 -93,-110c13,8 138,147 132,147c-2,0 -20,-17 -39,-37z"/>
   <path id="svg_8" d="m981.05186,-915.96253c6,-2 18,-2 25,0c6,3 1,5 -13,5c-14,0 -19,-2 -12,-5z"/>
   <path id="svg_9" d="m1036.05186,-925.96253c9,-2 23,-2 30,0c6,3 -1,5 -18,5c-16,0 -22,-2 -12,-5z"/>
   <path id="svg_10" d="m1153.05186,-943.96253c36,-8 90,-14 120,-15c30,0 104,-11 165,-25c60,-14 125,-25 145,-24c22,1 7,6 -42,14c-42,7 -91,18 -110,24c-29,9 -79,15 -293,36c-46,4 -45,3 15,-10z"/>
   <path id="svg_11" d="m1636.05186,-1015.96253c9,-2 23,-2 30,0c6,3 -1,5 -18,5c-16,0 -22,-2 -12,-5z"/>
   <path id="svg_12" d="m1698.05186,-1028.96253c11,-5 27,-9 35,-9c9,0 8,4 -5,9c-11,5 -27,9 -35,9c-9,0 -8,-4 5,-9z"/>
   <path id="svg_13" d="m1761.05186,-1045.96253c7,-3 16,-2 19,1c4,3 -2,6 -13,5c-11,0 -14,-3 -6,-6z"/>
   <path id="svg_14" d="m1853.05186,-1072.96253c0,-2 7,-7 16,-10c8,-3 12,-2 9,4c-6,10 -25,14 -25,6z"/>
   <path id="svg_15" d="m3197.05186,-2680.96253l-19,-23l23,19c21,18 27,26 19,26c-2,0 -12,-10 -23,-22z"/>
   <path id="svg_16" d="m2916.05186,-2860.96253c-38,-40 -89,-102 -113,-137c-58,-86 -137,-257 -194,-417c-25,-72 -57,-157 -71,-190c-13,-32 -19,-51 -12,-40c41,61 118,157 218,269c63,71 147,170 186,220l72,92l1,138c0,75 -4,137 -8,137c-5,0 -40,-33 -79,-72z"/>
   <path id="svg_17" d="m2848.05186,-3856.96253c-82,-43 -184,-99 -225,-126c-70,-46 -220,-180 -220,-197c0,-4 48,22 108,58c59,36 126,77 149,90c24,14 47,32 52,41c5,9 12,14 16,10c4,-3 23,5 42,18c44,29 49,30 64,2c10,-19 8,-25 -17,-45c-16,-13 -32,-23 -36,-23c-4,0 -34,-18 -68,-41c-34,-22 -98,-63 -143,-90c-45,-27 -78,-49 -74,-49c12,0 461,230 486,249c20,15 22,25 19,98l-3,82l-150,-77zm115,-23c9,-17 8,-23 -7,-35c-25,-18 -37,-17 -57,5c-16,18 -16,20 6,35c30,21 45,20 58,-5z"/>
   <path id="svg_18" d="m2627.05186,-4084.96253c-18,-14 -18,-15 4,-4c12,6 22,13 22,15c0,8 -5,6 -26,-11z"/>
   <path id="svg_19" d="m2491.05186,-4164.96253c-38,-20 -36,-28 2,-9c17,9 30,18 30,20c0,7 -1,6 -32,-11z"/>
   <path id="svg_20" d="m1904.05186,-5784.96253c0,-11 3,-14 6,-6c3,7 2,16 -1,19c-3,4 -6,-2 -5,-13z"/>
   <path id="svg_21" d="m5813.05186,-1935.96253c-376,-36 -629,-152 -876,-398c-209,-208 -264,-289 -800,-1150l-392,-630l-371,-3l-371,-2l0,30c0,16 -1,30 -3,30c-2,0 -59,-29 -128,-65c-126,-67 -359,-182 -436,-216l-43,-18l0,-108c0,-59 -7,-441 -15,-848c-8,-407 -15,-813 -15,-902l0,-161l-37,-6c-21,-3 -103,-15 -182,-27l-144,-22l7,-111c3,-61 6,-130 6,-153l0,-43l880,0l880,0l0,108l0,108l-337,63c-186,34 -359,67 -385,73l-48,10l0,934l0,934l365,0l365,0l43,-58c23,-32 373,-534 777,-1115l735,-1056l1430,2c1291,3 1441,5 1545,20c217,33 463,103 599,172l45,22l-97,57c-112,66 -158,84 -247,97c-35,5 -103,23 -151,39l-88,30l-73,-20c-69,-19 -101,-20 -730,-20l-658,0l0,936l0,935l643,-4c705,-4 723,-5 911,-68c174,-58 308,-148 406,-273c44,-56 76,-83 86,-74c5,6 -217,292 -317,409c-54,64 -124,138 -154,164c-31,26 -94,92 -141,146l-86,99l-674,0l-674,0l0,830l0,830l834,0l833,0l6,81c8,97 29,133 65,110c18,-11 94,-241 131,-392c16,-68 43,-160 60,-204c51,-133 71,-230 76,-360c8,-184 11,-199 80,-325l19,-35l7,40c14,76 9,156 -15,239c-30,100 -62,399 -52,488c9,91 40,201 70,252c14,25 52,72 85,106c52,56 61,61 80,51l21,-12l0,181l0,180l-1515,0l-1515,0l0,34c0,31 -3,34 -37,40c-38,6 -218,6 -283,-1zm410,-425l70,-12l0,-96c0,-193 -70,-3903 -73,-3907c-2,-2 -53,-8 -113,-14c-106,-11 -112,-11 -228,19c-65,17 -122,34 -126,39c-39,45 -1514,2172 -1514,2183c0,19 623,1006 757,1200c104,150 241,335 254,343c5,3 202,-17 438,-44c237,-27 433,-49 438,-49c4,0 7,79 7,175c0,108 4,175 10,175c5,0 41,-5 80,-12z"/>
   <path id="svg_22" d="m1583.05186,-2043.96253c0,-27 10,-46 45,-85c24,-28 51,-63 59,-79c14,-27 40,-41 79,-41c13,0 17,8 17,33c0,17 8,71 18,120l18,87l-118,0l-118,0l0,-35z"/>
   <path id="svg_23" d="m1928.05186,-2020.96253c-9,-25 -35,-191 -35,-224c0,-32 1,-33 56,-40l56,-7l43,50c54,62 161,150 240,197l60,36l-208,0c-157,0 -209,-3 -212,-12z"/>
   <path id="svg_24" d="m2449.05186,-2044.96253c-93,-40 -188,-102 -269,-174c-122,-109 -67,-88 176,67c40,26 53,30 82,23c33,-7 47,1 25,15c-18,11 -11,22 24,39c45,21 46,21 46,-13c0,-25 -8,-34 -52,-60c-114,-66 -278,-180 -269,-185c5,-3 36,-9 68,-12c57,-6 59,-5 148,51c127,81 146,89 276,123c120,32 322,109 374,142c30,20 30,20 -260,19l-290,-1l-79,-34z"/>
   <path id="svg_25" d="m3238.05186,-2044.96253c-161,-97 -350,-178 -517,-220c-109,-28 -150,-45 -235,-102l-53,-35l0,-69l0,-70l28,6c71,16 82,-39 83,-409c0,-148 1,-300 2,-337l1,-67l27,73c91,250 213,436 365,558l64,52l0,152l0,152l58,6c99,12 340,63 519,111c95,25 175,45 178,45c3,0 5,43 5,95l0,95l-232,0l-233,0l-60,-36z"/>
   <path id="svg_26" d="m8563.05186,-2434.96253c0,-54 5,-140 10,-191c10,-95 131,-586 157,-636c8,-16 30,-46 49,-67c20,-22 88,-142 151,-267c119,-234 203,-445 269,-673c112,-391 190,-683 220,-819c19,-86 45,-203 59,-260c14,-57 24,-105 21,-108c-2,-2 -24,23 -50,55c-33,44 -69,74 -132,113c-48,30 -92,62 -98,71c-7,12 -7,34 2,75c7,32 17,119 24,194c13,164 -1,254 -63,394c-91,204 -268,411 -295,342c-7,-19 23,-85 65,-142c62,-84 181,-300 196,-355c22,-83 37,-227 33,-325l-3,-90l-18,60c-23,78 -59,175 -113,303c-48,113 -115,209 -286,411c-169,198 -280,286 -514,405c-71,36 -154,80 -185,97c-31,17 -75,33 -99,36c-67,9 -50,-23 36,-68c39,-20 100,-60 135,-88c90,-74 480,-479 564,-586c185,-235 222,-285 262,-349c23,-38 41,-71 39,-73c-2,-3 -44,18 -92,46c-94,53 -277,121 -381,141c-115,23 -146,-8 -73,-73c60,-55 256,-147 440,-206c145,-48 215,-84 267,-142c27,-29 85,-76 130,-105c45,-30 97,-70 115,-91c18,-20 53,-58 76,-85c38,-41 47,-60 69,-145c72,-284 213,-977 201,-989c-3,-2 -20,24 -38,58c-75,143 -167,228 -292,269c-90,29 -102,23 -94,-42c10,-71 41,-148 131,-329c102,-203 136,-252 276,-391c91,-90 119,-125 124,-150c13,-76 61,-489 55,-489c-3,1 -26,29 -51,63c-25,34 -79,106 -120,161c-41,54 -113,153 -162,220c-48,66 -107,148 -131,181c-24,33 -58,85 -76,115c-17,30 -40,64 -50,75c-10,11 -38,49 -62,85c-24,36 -69,102 -100,146c-86,125 -115,183 -123,244c-18,153 -115,549 -166,676c-17,44 -53,142 -81,219c-27,77 -56,159 -65,183c-8,24 -17,41 -20,39c-2,-3 8,-38 22,-78c154,-433 202,-590 261,-859c35,-156 32,-165 -22,-86c-29,43 -63,116 -94,199c-112,304 -158,436 -175,500c-9,37 -19,66 -21,64c-8,-8 44,-183 114,-387c39,-113 73,-214 77,-225l7,-20l-17,20c-10,11 -28,44 -41,72c-54,119 -129,238 -198,311c-39,42 -98,111 -131,152c-368,465 -486,558 -863,680c-167,54 -237,70 -231,52c11,-33 178,-206 269,-279c58,-46 226,-200 373,-341c158,-151 295,-274 333,-297c218,-137 354,-246 436,-347c28,-36 26,-35 -66,26c-158,106 -300,149 -541,165c-82,6 -217,15 -300,21c-82,6 -197,10 -255,8c-97,-3 -105,-5 -108,-24c-2,-17 7,-23 55,-38c32,-10 97,-38 145,-62c130,-65 248,-112 335,-133c115,-27 298,-79 378,-107c39,-13 99,-28 135,-34c106,-16 180,-52 375,-182c93,-61 187,-166 257,-284c62,-106 249,-353 287,-382c18,-13 31,-32 32,-45c0,-12 33,-65 74,-117c77,-98 196,-259 271,-365c23,-34 45,-72 48,-85c3,-14 12,-106 21,-205c8,-99 17,-206 20,-237c3,-37 1,-58 -6,-58c-5,0 -34,26 -64,58c-61,66 -149,112 -227,120c-131,13 -8,-114 178,-184c93,-34 120,-62 128,-127c3,-29 7,-253 8,-499c2,-392 4,-447 18,-451c8,-3 23,-8 33,-12c15,-6 17,1 17,76c1,141 -21,748 -29,844c-13,139 19,169 126,120c80,-36 211,-52 258,-29c18,8 36,22 39,29c8,22 -28,59 -88,89c-61,31 -136,37 -205,16c-57,-16 -47,-4 36,43c43,25 114,66 159,92c193,111 261,185 272,295c4,42 2,50 -12,50c-9,0 -76,-29 -149,-65c-209,-101 -307,-196 -378,-365c-39,-93 -50,-109 -60,-83c-4,10 -8,41 -8,70c-1,28 -8,113 -16,189c-9,76 -16,154 -16,173c1,57 -16,240 -28,311c-12,72 -14,200 -5,249c4,17 16,37 28,43c13,7 93,13 211,14c234,4 283,12 355,63c70,49 75,71 21,96c-96,43 -353,0 -529,-89c-33,-17 -52,-22 -52,-14c0,7 40,64 88,128c169,221 220,305 293,494c57,145 118,383 105,405c-11,18 -182,-78 -237,-132c-88,-87 -194,-258 -233,-378c-36,-111 -71,-269 -84,-384l-8,-70l-22,90c-11,50 -35,171 -51,270c-17,99 -51,279 -75,400l-45,220l27,20c15,11 37,31 50,44c36,39 243,354 311,476c105,184 310,658 442,1020c38,105 79,211 91,237c12,27 18,51 15,54c-4,4 -39,-24 -80,-62c-40,-38 -125,-106 -188,-151c-129,-91 -190,-149 -254,-238c-102,-143 -151,-259 -189,-451c-14,-72 -40,-175 -56,-230c-32,-102 -45,-189 -58,-379l-7,-110l-27,75c-40,108 -61,223 -55,296c4,50 15,81 66,176c58,109 101,214 101,246c0,41 -142,-40 -237,-134c-97,-97 -79,-256 66,-584c28,-63 51,-127 51,-142c0,-45 -57,-124 -77,-105c-2,2 -17,69 -34,148c-29,138 -233,951 -282,1129l-24,85l34,125c18,69 33,145 33,170c1,43 4,48 72,110c264,240 295,288 284,440c-14,207 -67,450 -107,486c-40,36 -44,11 -44,-264c-1,-207 -4,-271 -18,-332c-18,-77 -90,-236 -127,-280l-22,-25l6,45c22,161 25,238 16,410c-6,102 -11,258 -13,347c-1,92 -6,158 -11,153c-4,-5 -7,-84 -5,-177c8,-402 4,-605 -14,-698c-10,-49 -20,-96 -23,-104c-8,-23 -112,146 -136,219c-25,80 -36,260 -19,341c10,49 26,79 108,212c2,4 2,7 0,7c-10,0 -90,-132 -107,-177c-56,-147 -24,-387 70,-537c46,-74 64,-136 56,-196c-10,-80 -40,-220 -47,-220c-4,0 -11,17 -17,38c-56,208 -148,488 -223,677c-50,127 -95,245 -99,263c-10,42 25,251 45,266c25,19 133,288 156,390c15,68 0,219 -42,428c-16,81 -29,159 -29,172c0,44 -17,37 -79,-30c-70,-77 -94,-132 -118,-271c-14,-87 -14,-105 1,-226c9,-73 16,-146 16,-163c0,-17 9,-66 21,-110c36,-136 37,-151 23,-273c-8,-64 -16,-120 -17,-125c-4,-12 -91,139 -121,213c-23,53 -27,81 -32,204c-7,153 -26,250 -74,377c-16,41 -43,131 -60,200c-34,136 -70,254 -76,247c-2,-2 5,-29 15,-60c11,-30 32,-111 46,-179c15,-68 38,-150 52,-183c49,-120 73,-249 73,-387c0,-71 -3,-128 -6,-128c-9,0 -31,28 -51,65c-9,17 -38,113 -64,215c-27,102 -59,226 -73,276c-17,63 -28,142 -36,255c-6,90 -13,166 -16,168c-2,2 -4,-40 -4,-95zm577,-51c6,-43 19,-118 29,-168c12,-61 18,-139 18,-240l1,-150l-49,-125c-26,-69 -58,-143 -69,-165l-21,-40l-7,35c-3,19 -16,71 -28,114c-11,44 -21,96 -21,115c0,20 -7,77 -15,126c-26,158 -13,324 34,430c18,39 98,145 111,145c3,0 11,-35 17,-77zm562,-991c22,-76 34,-137 56,-302c17,-127 11,-190 -24,-257c-22,-43 -128,-156 -181,-193l-35,-25l23,35c37,55 78,149 98,225c16,59 19,110 20,320c1,138 2,256 3,263c2,29 21,-2 40,-66zm-754,-113c9,-17 15,-33 13,-35c-3,-2 -12,12 -21,31c-21,43 -13,47 8,4zm-692,-390c211,-106 304,-182 481,-394c214,-257 260,-334 343,-579c23,-70 43,-133 43,-139c0,-18 -48,52 -95,138c-96,174 -360,511 -530,675c-37,36 -103,106 -148,155c-45,50 -108,112 -142,138c-33,27 -62,51 -64,53c-13,13 21,-2 112,-47zm751,-324c49,-59 130,-205 165,-297c38,-99 53,-183 49,-278c-3,-82 -6,-75 -28,75c-21,143 -35,172 -207,436c-40,61 -73,118 -73,126c0,22 52,-12 94,-62zm1528,-226c-126,-340 -348,-853 -444,-1024c-56,-100 -213,-341 -228,-350c-14,-8 -13,35 5,216c11,117 23,181 50,267c19,62 44,162 55,223c25,130 53,225 87,294c43,85 129,208 185,262c61,60 332,263 336,252c2,-4 -19,-67 -46,-140zm-1887,-326c194,-57 375,-155 410,-223l15,-30l-52,22c-29,11 -89,33 -133,48c-103,36 -314,123 -352,147c-37,23 -93,70 -93,78c0,12 81,-5 205,-42zm-1001,-119c93,-30 201,-71 240,-92c87,-45 244,-162 308,-228c46,-48 72,-80 262,-314c52,-63 106,-126 121,-140c67,-62 181,-229 221,-327l16,-36l-54,47c-92,82 -181,151 -243,190c-171,107 -227,147 -295,213c-211,202 -418,392 -497,455c-94,74 -225,198 -276,262l-31,39l29,-7c17,-4 106,-32 199,-62zm2236,-154c0,-23 -53,-140 -105,-230c-68,-119 -78,-166 -60,-279c8,-47 13,-87 11,-89c-6,-5 -43,99 -66,181c-24,87 -26,196 -4,242c8,18 50,62 92,97c98,83 132,102 132,78zm-2000,-860c69,-6 199,-15 290,-21c183,-11 269,-27 380,-71c119,-47 207,-107 312,-216c80,-82 158,-187 158,-214c0,-3 -64,33 -142,80c-158,95 -210,118 -289,127c-30,4 -94,20 -144,35c-92,30 -116,36 -335,95c-139,37 -218,68 -365,143l-100,51l55,0c30,0 111,-4 180,-9zm2545,-288c-22,-99 -96,-305 -147,-406c-44,-90 -117,-198 -228,-336c-41,-52 -83,-106 -93,-120c-18,-25 -18,-25 -12,40c15,160 74,412 120,517c37,82 129,217 194,282c56,57 173,128 179,110c2,-5 -4,-44 -13,-87zm-991,-71c83,-38 146,-96 205,-192c47,-76 68,-127 149,-359c36,-103 60,-200 48,-200c-2,0 -50,44 -105,97c-62,58 -120,126 -150,172c-116,181 -259,511 -221,511c6,0 39,-13 74,-29zm1099,-742c20,-5 37,-14 37,-19c0,-12 -59,-56 -95,-70c-43,-17 -253,-30 -369,-23l-99,6l34,17c139,71 392,117 492,89zm47,-784c-28,-85 -135,-167 -393,-303l-97,-52l14,33c38,92 126,196 218,258c31,21 103,61 160,87c92,43 103,46 106,30c2,-10 -2,-34 -8,-53zm-837,-305c57,-22 144,-89 116,-90c-24,0 -152,66 -174,90c-23,25 -10,25 58,0zm615,-120c28,-17 52,-35 52,-40c0,-25 -49,-33 -130,-22c-72,10 -160,45 -160,64c0,11 72,26 130,27c44,1 66,-5 108,-29z"/>
   <path id="svg_27" d="m9071.05186,-2515.96253c-60,-92 -89,-254 -69,-396c6,-50 16,-130 21,-177c10,-91 28,-170 40,-170c3,0 25,51 48,113l42,112l0,150c0,118 -6,176 -25,274c-13,68 -26,125 -28,128c-2,2 -15,-14 -29,-34z"/>
   <path id="svg_28" d="m8398.05186,-4132.96253c20,-25 61,-66 91,-91c70,-60 230,-242 335,-381c142,-187 179,-235 179,-231c0,3 -16,40 -36,83c-39,87 -93,163 -256,361c-115,140 -190,214 -272,269c-70,47 -85,43 -41,-10z"/>
   <path id="svg_29" d="m8608.05186,-6165.96253c-11,-8 -47,-28 -80,-45c-69,-35 -66,-39 51,-57c99,-15 167,-41 261,-100c46,-28 85,-51 89,-51c13,0 -168,185 -208,212c-80,54 -91,58 -113,41z"/>
   <path id="svg_30" d="m2444.05186,-2664.96253c0,-11 3,-14 6,-6c3,7 2,16 -1,19c-3,4 -6,-2 -5,-13z"/>
   <path id="svg_31" d="m2424.05186,-2784.96253c0,-11 3,-14 6,-6c3,7 2,16 -1,19c-3,4 -6,-2 -5,-13z"/>
   <path id="svg_32" d="m2445.05186,-2855.96253c-1,-12 -6,-23 -12,-25c-6,-2 -12,-123 -15,-313l-6,-310l19,45c23,53 47,213 37,238c-4,9 -11,100 -15,202c-3,102 -7,175 -8,163z"/>
   <path id="svg_33" d="m2917.05186,-3320.96253c-94,-99 -178,-201 -262,-319c-33,-47 -82,-110 -107,-140c-70,-81 -145,-211 -145,-249l0,-33l54,51c75,71 176,134 374,236l172,87l0,224c0,124 -2,225 -4,225c-2,0 -39,-37 -82,-82z"/>
   <path id="svg_34" d="m9123.05186,-3369.96253c-13,-34 -30,-63 -37,-66c-7,-3 -15,-21 -19,-41c-3,-21 -8,-45 -11,-54c-4,-15 3,-18 46,-18l51,0l0,120c0,66 -1,120 -3,120c-1,0 -13,-27 -27,-61z"/>
   <path id="svg_35" d="m8664.05186,-4195.96253c90,-93 222,-250 302,-358c46,-62 81,-125 112,-200c26,-60 50,-119 56,-130c14,-29 1,91 -17,162c-16,60 -121,254 -185,338c-41,54 -78,129 -79,157c0,11 -18,23 -52,36c-57,21 -186,62 -196,62c-4,0 23,-30 59,-67z"/>
   <path id="svg_36" d="m9148.05186,-4415.96253c53,-90 103,-213 121,-300c19,-91 15,-266 -11,-397c-17,-94 -19,-91 76,-147c37,-23 73,-47 80,-55c12,-14 34,-20 26,-6c-3,4 -21,84 -41,177c-20,94 -71,292 -112,440c-79,279 -77,275 -146,326c-28,20 -28,20 7,-38z"/>
   <path id="svg_37" d="m9410.05186,-4674.96253c-13,-14 -7,-49 38,-219c25,-93 63,-237 83,-319l39,-149l18,49c41,109 -5,342 -106,535c-48,92 -62,112 -72,103z"/>
   <path id="svg_38" d="m8977.05186,-5145.96253c13,-44 26,-182 26,-271c0,-116 -12,-196 -45,-301l-25,-79l46,-173c25,-96 58,-237 73,-313l27,-139l59,48c182,145 311,313 385,499l32,79l-28,111c-15,61 -31,120 -37,131c-27,52 -146,169 -212,207c-38,23 -96,67 -127,99c-62,64 -184,135 -174,102z"/>
   <path id="svg_39" d="m8657.05186,-5250.96253c-5,-7 -3,-8 6,-3c8,5 18,1 27,-10c7,-11 13,-14 13,-9c0,12 -21,34 -31,34c-4,0 -11,-5 -15,-12z"/>
   <path id="svg_40" d="m8645.05186,-5298.96253c0,-19 2,-27 5,-17c2,9 2,25 0,35c-3,9 -5,1 -5,-18z"/>
   <path id="svg_41" d="m8645.05186,-5413.96253c0,-16 2,-22 5,-12c2,9 2,23 0,30c-3,6 -5,-1 -5,-18z"/>
   <path id="svg_42" d="m8654.05186,-5484.96253c0,-11 3,-14 6,-6c3,7 2,16 -1,19c-3,4 -6,-2 -5,-13z"/>
   <path id="svg_43" d="m8855.05186,-5924.96253c-10,-17 0,-50 80,-267c6,-15 12,-26 15,-24c5,6 -68,289 -78,300c-4,5 -11,1 -17,-9z"/>
   <path id="svg_44" d="m1753.05186,-6493.96253c-188,-55 -170,-39 -170,-150l0,-95l163,0l163,0l-4,128c-2,70 -5,133 -7,140c-6,17 -15,15 -145,-23z"/>
   <path id="svg_45" d="m9091.05186,-7159.96253c-182,-21 -241,-35 -246,-60c-2,-12 18,-23 82,-44c80,-26 92,-27 178,-19c51,4 129,7 174,6c62,-2 92,2 131,17c28,11 53,17 56,14c4,-3 14,-2 24,1c15,6 12,13 -26,46c-46,40 -104,61 -168,59c-21,-1 -113,-10 -205,-20zm322,-24c17,-9 30,-18 30,-20c0,-3 -17,-13 -39,-24c-33,-18 -63,-20 -247,-23c-178,-3 -213,-1 -238,13l-30,17l35,7c175,39 441,55 489,30z"/>
  </g>
 </g>

</svg>